<?xml version="1.0" encoding="UTF-8"?><svg id="Capa_1" xmlns="http://www.w3.org/2000/svg" xmlns:xlink="http://www.w3.org/1999/xlink" viewBox="0 0 144 44"><defs><style>.cls-1{fill:#000;}.cls-1,.cls-2,.cls-3,.cls-4{stroke-width:0px;}.cls-2{fill:#185ec8;}.cls-3{fill:none;}.cls-4{fill:#fff;isolation:isolate;opacity:.3;}.cls-5{clip-path:url(#clippath);}</style><clipPath id="clippath"><rect class="cls-3" y="4.5" width="35" height="35"/></clipPath></defs><g class="cls-5"><path class="cls-2" d="M19.02,4.5c-2.5,0-4.97.49-7.28,1.45-2.31.96-4.4,2.36-6.17,4.12-1.77,1.77-3.17,3.86-4.12,6.17C.49,18.55,0,21.02,0,23.52v15.98h15.98c5.04,0,9.88-2,13.45-5.57,3.57-3.57,5.57-8.41,5.57-13.45V4.5h-15.98ZM25.53,24.62h-5.42v5.42h-5.23v-5.42h-5.42v-5.23h5.42v-5.42h5.23v5.42h5.41v5.23Z"/><path class="cls-4" d="M0,23.52v15.98l14.88-14.88h-5.42v-5.23h5.42v-5.42h5.23v5.41l14.88-14.88h-15.99c-5.04,0-9.87,2.01-13.44,5.58C2,13.64,0,18.48,0,23.52Z"/></g><path class="cls-1" d="M45.9,12.65c0-.52-.22-.92-.65-1.21-.44-.28-1.22-.58-2.35-.89-1.13-.31-2.03-.62-2.69-.92-1.8-.83-2.7-1.94-2.7-3.33,0-.73.24-1.37.72-1.94s1.18-1.01,2.08-1.33c.9-.32,1.92-.48,3.04-.48s2.14.17,3.03.52c.89.35,1.57.84,2.06,1.47.49.63.74,1.35.74,2.16h-3.27c0-.62-.23-1.09-.69-1.44-.46-.34-1.1-.51-1.93-.51s-1.42.14-1.86.43c-.44.29-.66.66-.66,1.13,0,.44.26.8.78,1.1.52.3,1.28.57,2.29.83,1.86.47,3.21,1.06,4.06,1.76.85.7,1.27,1.58,1.27,2.62,0,1.16-.52,2.08-1.56,2.74-1.04.66-2.44.99-4.19.99-1.22,0-2.33-.19-3.33-.57-1-.38-1.77-.9-2.29-1.56-.53-.66-.79-1.42-.79-2.29h3.28c0,1.48,1.05,2.23,3.14,2.23.78,0,1.38-.13,1.82-.4.44-.27.65-.64.65-1.12Z"/><path class="cls-1" d="M64.42,9.76c0,1.32-.28,2.48-.83,3.48-.55,1-1.34,1.77-2.37,2.31-1.03.54-2.21.81-3.54.81s-2.49-.27-3.52-.8-1.83-1.3-2.4-2.29-.85-2.14-.86-3.43v-.67c0-1.32.28-2.49.84-3.5.56-1.01,1.36-1.78,2.39-2.32,1.03-.54,2.2-.81,3.52-.81s2.5.27,3.52.81c1.03.54,1.82,1.31,2.39,2.32.56,1.01.84,2.17.84,3.49v.6ZM61.11,9.15c0-1.41-.3-2.48-.89-3.21-.6-.73-1.45-1.1-2.55-1.1s-1.94.36-2.54,1.08c-.6.72-.9,1.78-.9,3.18v.66c0,1.37.3,2.44.89,3.2.6.76,1.45,1.14,2.57,1.14s1.94-.36,2.53-1.09c.59-.73.89-1.79.89-3.19v-.66Z"/><path class="cls-1" d="M79.69,16.18h-3.27l-6.36-8.85v8.85h-3.27V2.73h3.27l6.37,8.87V2.73h3.26v13.45Z"/><path class="cls-1" d="M88.42,11.26h-2.6v4.92h-3.27V2.73h5.89c1.87,0,3.32.35,4.34,1.06s1.53,1.71,1.53,3c0,.92-.23,1.68-.7,2.29-.47.61-1.18,1.1-2.13,1.46l3.43,5.49v.13h-3.51l-2.97-4.92ZM85.82,9.01h2.64c.82,0,1.46-.18,1.91-.53.45-.35.67-.84.67-1.46s-.21-1.13-.64-1.5c-.42-.36-1.08-.54-1.96-.54h-2.62v4.04Z"/><path class="cls-1" d="M100.26,16.18h-3.27V2.73h3.27v13.45Z"/><path class="cls-1" d="M111.52,12.65c0-.52-.22-.92-.65-1.21-.44-.28-1.22-.58-2.35-.89-1.13-.31-2.03-.62-2.69-.92-1.8-.83-2.7-1.94-2.7-3.33,0-.73.24-1.37.72-1.94.48-.57,1.18-1.01,2.08-1.33s1.92-.48,3.04-.48,2.14.17,3.03.52c.89.35,1.57.84,2.06,1.47.49.63.74,1.35.74,2.16h-3.27c0-.62-.23-1.09-.69-1.44-.46-.34-1.1-.51-1.93-.51s-1.42.14-1.86.43c-.44.29-.67.66-.67,1.13,0,.44.26.8.78,1.1.52.3,1.28.57,2.29.83,1.86.47,3.21,1.06,4.06,1.76.85.7,1.27,1.58,1.27,2.62,0,1.16-.52,2.08-1.56,2.74-1.04.66-2.44.99-4.19.99-1.22,0-2.33-.19-3.33-.57-1-.38-1.77-.9-2.29-1.56-.53-.66-.79-1.42-.79-2.29h3.28c0,1.48,1.04,2.23,3.14,2.23.78,0,1.38-.13,1.82-.4.44-.27.65-.64.65-1.12Z"/><path class="cls-1" d="M125.96,13.41h-5.73l-1.09,2.77h-3.48l5.9-13.45h3.03l5.94,13.45h-3.47l-1.1-2.77ZM121.11,11.17h3.96l-1.99-5.03-1.97,5.03Z"/><path class="cls-1" d="M40.94,34.14v4.74h-3.27v-13.45h6.19c1.19,0,2.24.18,3.14.55.9.37,1.6.89,2.09,1.57.49.68.73,1.45.73,2.32,0,1.32-.53,2.36-1.6,3.12-1.06.76-2.54,1.14-4.42,1.14h-2.87ZM40.94,31.89h2.92c.86,0,1.52-.17,1.98-.52.45-.34.68-.84.68-1.48s-.23-1.19-.69-1.6-1.09-.62-1.9-.63h-3v4.22Z"/><path class="cls-1" d="M61.61,33.05h-6.27v3.6h7.36v2.23h-10.63v-13.45h10.61v2.24h-7.34v3.21h6.27v2.17Z"/><path class="cls-1" d="M70.49,33.95h-2.6v4.92h-3.27v-13.45h5.89c1.87,0,3.32.35,4.34,1.06s1.53,1.71,1.53,3c0,.92-.23,1.68-.7,2.29-.47.61-1.18,1.1-2.13,1.46l3.43,5.5v.13h-3.51l-2.97-4.92ZM67.88,31.71h2.64c.82,0,1.46-.18,1.91-.53.45-.35.68-.84.68-1.46s-.21-1.13-.64-1.5c-.43-.36-1.08-.54-1.96-.54h-2.63v4.04Z"/><path class="cls-1" d="M88.4,33.38h-6.27v5.5h-3.27v-13.45h10.33v2.24h-7.06v3.47h6.27v2.23Z"/><path class="cls-1" d="M100.62,33.05h-6.27v3.6h7.36v2.23h-10.63v-13.45h10.61v2.24h-7.34v3.21h6.27v2.17Z"/><path class="cls-1" d="M116.08,34.4c-.12,1.45-.75,2.58-1.89,3.42-1.14.83-2.63,1.25-4.49,1.25-2.03,0-3.63-.58-4.8-1.74-1.17-1.16-1.75-2.75-1.75-4.78v-.82c0-1.29.27-2.43.81-3.42.54-.98,1.31-1.74,2.3-2.27,1-.53,2.16-.79,3.48-.79,1.83,0,3.3.42,4.42,1.25,1.12.83,1.76,2,1.94,3.5h-3.27c-.08-.87-.37-1.5-.86-1.89s-1.24-.59-2.24-.59c-1.09,0-1.9.33-2.45.99s-.82,1.69-.83,3.08v1.02c0,1.45.26,2.51.78,3.19.52.67,1.34,1.01,2.46,1.01,1.01,0,1.76-.2,2.26-.59.5-.39.78-1,.85-1.81h3.27Z"/><path class="cls-1" d="M129.85,27.67h-4.86v11.2h-3.27v-11.2h-4.79v-2.24h12.92v2.24Z"/><path class="cls-1" d="M139.36,36.1h-5.73l-1.09,2.77h-3.48l5.9-13.45h3.03l5.94,13.45h-3.47l-1.1-2.77ZM134.51,33.86h3.96l-1.99-5.03-1.97,5.03Z"/></svg>